# xmcd
#
# Track frame offsets:
#	150
#	26122
#	49763
#	69209
#	94065
#	110584
#	133077
#	154184
#	171510
#	193119
#	211602
#	232423
#	251227
#
# Disc length: 3971 seconds
#
# Revision: 1
# Processed by: cddbd v1.5.2PL0 Copyright (c) Steve Scherf et al.
# Submitted via: audiograbber 1.83.01
#
DISCID=c00f810d
DTITLE=Ocobamba - Quipus
DYEAR=2008
DGENRE=Latin
TTITLE0=Nightinggale
TTITLE1=Kaypim
TTITLE2=Lagrimas De Mi Madre
TTITLE3=Wayrajinam
TTITLE4=Chariots Of Fire
TTITLE5=Verdadero Amor
TTITLE6=Fantasy Of Caravans
TTITLE7=Mi Cholita
TTITLE8=Pastor Solitario
TTITLE9=Vamos Peru
TTITLE10=My Heart Will Go On
TTITLE11=Triste Sentir
TTITLE12=Llaki Runa
EXTD=http://www.ocobamba.com/ by Rullin
EXTT0=http://www.ocobamba.com/ by Rullin
EXTT1=http://www.ocobamba.com/ by Rullin
EXTT2=http://www.ocobamba.com/ by Rullin
EXTT3=http://www.ocobamba.com/ by Rullin
EXTT4=http://www.ocobamba.com/ by Rullin
EXTT5=http://www.ocobamba.com/ by Rullin
EXTT6=http://www.ocobamba.com/ by Rullin
EXTT7=http://www.ocobamba.com/ by Rullin
EXTT8=http://www.ocobamba.com/ by Rullin
EXTT9=http://www.ocobamba.com/ by Rullin
EXTT10=http://www.ocobamba.com/ by Rullin
EXTT11=http://www.ocobamba.com/ by Rullin
EXTT12=http://www.ocobamba.com/ by Rullin
PLAYORDER=
